<?xml version="1.0" encoding="UTF-8"?><svg id="b" xmlns="http://www.w3.org/2000/svg" viewBox="0 0 124.689493435489567 124.689493435480472"><defs><style>.d{fill:#ff8798;}.e{fill:#ffc3ca;}</style></defs><g id="c"><circle class="e" cx="62.344746717736598" cy="62.344746717735234" r="62.344746717740911"/><path class="d" d="M56.359947921839193,94.977679128869568c-1.0849609375-.0029296875-2.0498046875-.740234375-2.576171875-1.970703125-.7470703125-1.7490234375-.3759765625-4.0205078125.84375-5.171875l24.716796875-23.3056640625-24.640625-23.4892578125c-1.21484375-1.158203125-1.578125-3.4306640625-.826171875-5.173828125.52734375-1.22265625,1.494140625-1.9521484375,2.5859375-1.9521484375.63671875,0,1.240234375.25390625,1.7451171875.732421875l28.0126953125,26.7041015625c.7646484375.728515625,1.2197265625,1.9267578125,1.21875,3.2041015625-.0029296875,1.2783203125-.4619140625,2.4736328125-1.23046875,3.19921875l-28.099609375,26.4970703125c-.505859375.4755859375-1.1064453125.7265625-1.7373046875.7265625h-.0126953125Z"/><path class="d" d="M56.463463546839193,34.913958425744568c.363525390625,0,.73046875.148193359375,1.056640625.457763671875l28.01123046875,26.7027587890625c.56689453125.5408935546875.909912109375,1.4766845703125.908203125,2.4798583984375s-.34765625,1.936279296875-.91650390625,2.47314453125l-28.099609375,26.4959716796875c-.326416015625.3070068359375-.69287109375.4547119140625-1.053466796875.4547119140625h-.00439453125c-.650634765625-.00244140625-1.287109375-.486328125-1.6630859375-1.3648681640625-.583251953125-1.366455078125-.30859375-3.1827392578125.611328125-4.0506591796875l25.484130859375-24.029052734375-25.404052734375-24.2166748046875c-.9169921875-.8746337890625-1.185302734375-2.69287109375-.597900390625-4.054931640625.376953125-.873779296875,1.016845703125-1.347900390625,1.66748046875-1.3480224609375M56.463463546839193,32.913958425744568h-.000244140625c-1.481201171875.0001220703125-2.82373046875.9794921875-3.503662109375,2.555908203125-.92138671875,2.136474609375-.46826171875,4.8424072265625,1.053955078125,6.2943115234375l23.87744140625,22.761474609375-23.94921875,22.581787109375c-1.530029296875,1.4434814453125-1.993408203125,4.1478271484375-1.07861328125,6.291015625.6787109375,1.5863037109375,2.017822265625,2.5740966796875,3.494873046875,2.5797119140625.890625,0,1.75146484375-.3543701171875,2.435546875-.997802734375l28.1015625-26.497802734375c.97900390625-.9239501953125,1.541748046875-2.3543701171875,1.54443359375-3.9248046875.002685546875-1.5689697265625-.55419921875-3.00146484375-1.527587890625-3.9302978515625l-28.011962890625-26.703369140625c-.687255859375-.6524658203125-1.551513671875-1.0101318359375-2.4365234375-1.0101318359375h0Z"/></g></svg>