<?xml version="1.0" encoding="UTF-8"?><svg id="b" xmlns="http://www.w3.org/2000/svg" xmlns:xlink="http://www.w3.org/1999/xlink" viewBox="0 0 436.080186618479274 335.242778509591517"><defs><style>.g{clip-path:url(#f);}.h{fill:#fff;}.i{fill:none;}.j{clip-path:url(#e);}</style><clipPath id="e"><rect class="i" width="436.080186618480184" height="335.242778509591517"/></clipPath><clipPath id="f"><rect class="i" width="436.080186618480184" height="335.242778509591517"/></clipPath></defs><g id="c"><g id="d"><g class="j"><g class="g"><path class="h" d="M287.481520828642715,37.438719407698954c-18.967346339489268,0-34.57486967720979,13.417781675554579-34.57486967720979,29.724378179147607h69.148075014582901c0-16.306596503593028-15.60588421515331-29.724378179147607-34.573205337373111-29.724378179147607"/><path class="h" d="M234.044082569832426,169.254194894852844h14.156496390260145v-88.707031122776243h-14.156496390260145c-4.186142513324739,0-7.58066447895817,3.394496748363963-7.58066447895817,7.580639261688702v73.545739990764559c0,4.186142513324739,3.39452196563343,7.580651870322981,7.58066447895817,7.580651870322981"/><polygon class="h" points="301.857659642781073 169.254194894852844 317.349486144594266 169.254194894852844 317.349486144594266 80.547163772076601 257.613202470907709 80.547163772076601 257.613202470907709 120.193957797415351 257.613202470907709 169.254194894852844 301.857659642781073 169.254194894852844"/><path class="h" d="M340.918933870183537,80.546987251185783h-14.156521607531431v88.707056340044801h14.156521607531431c4.186117296053453,0,7.580639261686883-3.394521965632521,7.580639261686883-7.580651870321162v-73.545739990766378c0-4.18614251332292-3.39452196563343-7.58066447895726-7.580639261686883-7.58066447895726"/><path class="h" d="M125.661717636660796,125.849119780523324c0-7.385621502207869.922170355775052-14.604367718537105,2.662388958463453-21.5999915276916C55.847635601820002,111.854581308443812,0,159.640640174686268,0,217.466476062860238c0,24.427654475375675,9.970379094206692,47.060545392510903,26.944628044941055,65.634552750640069l-22.35029357807889,52.142417953753466,57.703551040415732-24.736704730925339c24.328493864433767,13.371495376011808,54.118966508906851,21.241364118830461,86.300805499829949,21.241364118830461,72.471509495381724,0,132.815983292959572-39.902963665172138,145.939580293776999-92.696516754052936-6.633680329256094.697408826035826-13.396271344031447,1.077521349150629-20.277862657116202,1.077521349150629-82.068408208549954,0-148.598691007107846-51.164050911225786-148.598691007107846-114.279990969733262"/><path class="h" d="M436.080489225722886,114.280659227393699C436.080489225722886,51.164706560251943,369.550219035800183.000655649026157,287.481823435885417.000655649026157,215.015256525472978.000655649026157,154.677414869970562,39.895360658192658,141.545546604511401,92.680655091066001c-1.740218602687492,6.995623809154495-2.662388958462543,14.214344808213355-2.662388958462543,21.600004136327698,0,63.115927449873197,66.530282798556982,114.279978361098983,148.598665789836559,114.279978361098983,6.881591313085664,0,13.644182327860108-.380112523114803,20.277887874386579-1.077521349150629,24.384696855503535-2.55993118943843,46.895271403292099-9.651405842814711,66.022923929761419-20.162191038480159l57.703519518827306,24.73504039108775-22.351907483373907-52.140753613915876c16.974223733463077-18.574007358129165,26.946241950236072-41.208550006467703,26.946241950236072-65.634552750640069M363.152874963328031,164.068048921126319c0,7.55090810006368-6.121391484126434,13.672286975554016-13.672299584189204,13.672286975554016h-123.999143009073123c-7.550908100061861,0-13.670635244351615-6.121378875490336-13.670635244351615-13.672286975554016v-82.666650119328551c0-7.550908100060042,6.119727144289755-13.670635244350706,13.670635244351615-13.670635244350706h12.08245156400244c0-23.543499154500751,22.533724001877999-42.917373107691674,49.917939501817273-42.917373107691674,27.38424071721056,0,49.917964719088559,19.373873953190923,49.917964719088559,42.917373107691674h12.080787224164851c7.55090810006277,0,13.672299584189204,6.119727144290664,13.672299584189204,13.670635244350706v82.666650119328551Z"/></g></g></g></g></svg>