<?xml version="1.0" encoding="UTF-8"?><svg id="b" xmlns="http://www.w3.org/2000/svg" xmlns:xlink="http://www.w3.org/1999/xlink" viewBox="0 0 304.351139424197754 248.809515043263673"><defs><style>.g{clip-path:url(#f);}.h{fill:#fff;}.i{fill:none;}.j{clip-path:url(#e);}</style><clipPath id="e"><rect class="i" width="304.351139424197754" height="248.809515043263673"/></clipPath><clipPath id="f"><rect class="i" width="304.351139424197754" height="248.809515043263673"/></clipPath></defs><g id="c"><g id="d"><g class="j"><g class="g"><path class="h" d="M283.854201507359903,45.45103444846427h-54.184436711766466c-1.854787647269404,0-3.643662526927073.308914326476952-5.353686645092239.837557600872969v-24.659027436407996C224.316078150501198,9.703317908291865,215.811181370601844.000256393170275,205.354560602081619.000256393170275h-108.618363701893031C86.280877820076057.000256393170275,77.774679351769009,9.703317908291865,77.774679351769009,21.629564612929244v146.584053747312282H29.320058067591162C13.152989417199933,168.213618360241526.000138057861477,183.216099919591215.000138057861477,201.656725156411994v47.153048745341948h304.351119701646894V68.831744699748015c0-12.891783943161499-9.193805508995865-23.380710251283745-20.497056252148468-23.380710251283745M147.697061435150317,231.536307083644715H15.143507664915887v-29.879581927232721c0-8.917211514031806,6.359280386015598-16.169637512743066,14.176550402675275-16.169637512743066h104.200462826160219c7.817260155383337,0,14.176540541398936,7.25242599871126,14.176540541398936,16.169637512743066v29.879581927232721ZM209.172708543444969,68.831744699748015v162.7045623838967h-46.332277501240242v-31.424163420892c0-17.588842745570219-12.545367184724455-31.898525302511189-27.967919371645621-31.898525302511189h-41.954462711735687V21.629564612929244c0-2.402818189935715,1.712607772431511-4.355843866967916,3.818147941365169-4.355843866967916h108.618363701893031c2.105540168931839,0,3.81814794136335,1.953025677032201,3.81814794136335,4.355843866967916v47.202180086818771ZM289.207907875004821,231.536307083644715h-64.891829724503623V68.831744699748015c0-3.367073462601184,2.401536224078882-6.107245898492693,5.353686645092239-6.107245898492693h54.184436711766466c2.952170143566036,0,5.353706367644918,2.740172435891509,5.353706367644918,6.107245898492693v162.7045623838967Z"/><path class="h" d="M124.466420079361342,26.792475015923628h-6.444590283172147c-1.912959313356623,0-3.479511729552542,1.786291225391324-3.479511729552542,3.969400189960652v22.638787303354547c0,2.183089242016649,1.566552416195918,3.969380467407973,3.479511729552542,3.969380467407973h6.444590283172147c1.914241279215275,0,3.479501868278021-1.786291225391324,3.479501868278021-3.969380467407973v-22.638787303354547c0-2.183108964569328-1.565260589062746-3.969400189960652-3.479501868278021-3.969400189960652"/><path class="h" d="M155.397603529874687,26.792475015923628h-6.444590283172147c-1.912959313356623,0-3.479511729552542,1.786291225391324-3.479511729552542,3.969400189960652v22.638787303354547c0,2.183089242016649,1.566552416195918,3.969380467407973,3.479511729552542,3.969380467407973h6.444590283172147c1.914241279215275,0,3.479501868278021-1.786291225391324,3.479501868278021-3.969380467407973v-22.638787303354547c0-2.183108964569328-1.565260589062746-3.969400189960652-3.479501868278021-3.969400189960652"/><path class="h" d="M186.328925038251327,26.792475015923628h-6.444600144448486c-1.912949452082103,0-3.479511729552542,1.786291225391324-3.479511729552542,3.969400189960652v22.638787303354547c0,2.183089242016649,1.566562277470439,3.969380467407973,3.479511729552542,3.969380467407973h6.444600144448486c1.914231417938936,0,3.479492006999862-1.786291225391324,3.479492006999862-3.969380467407973v-22.638787303354547c0-2.183108964569328-1.565260589060927-3.969400189960652-3.479492006999862-3.969400189960652"/><path class="h" d="M124.466420079361342,74.128669841195006h-6.444590283172147c-1.912959313356623,0-3.479511729552542,1.786291225393143-3.479511729552542,3.969400189960652v22.638777442080027c0,2.183089242016649,1.566552416195918,3.969380467409792,3.479511729552542,3.969380467409792h6.444590283172147c1.914241279215275,0,3.479501868278021-1.786291225393143,3.479501868278021-3.969380467409792v-22.638777442080027c0-2.183108964567509-1.565260589062746-3.969400189960652-3.479501868278021-3.969400189960652"/><path class="h" d="M155.397603529874687,74.128669841195006h-6.444590283172147c-1.912959313356623,0-3.479511729552542,1.786291225393143-3.479511729552542,3.969400189960652v22.638777442080027c0,2.183089242016649,1.566552416195918,3.969380467409792,3.479511729552542,3.969380467409792h6.444590283172147c1.914241279215275,0,3.479501868278021-1.786291225393143,3.479501868278021-3.969380467409792v-22.638777442080027c0-2.183108964567509-1.565260589062746-3.969400189960652-3.479501868278021-3.969400189960652"/><path class="h" d="M186.328925038251327,74.128669841195006h-6.444600144448486c-1.912949452082103,0-3.479511729552542,1.786291225393143-3.479511729552542,3.969400189960652v22.638777442080027c0,2.183089242016649,1.566562277470439,3.969380467409792,3.479511729552542,3.969380467409792h6.444600144448486c1.914231417938936,0,3.479492006999862-1.786291225393143,3.479492006999862-3.969380467409792v-22.638777442080027c0-2.183108964567509-1.565260589060927-3.969400189960652-3.479492006999862-3.969400189960652"/><path class="h" d="M124.466420079361342,124.404885718216974h-6.444590283172147c-1.912959313356623,0-3.479511729552542,1.786291225393143-3.479511729552542,3.969390328684312v22.638787303356366c0,2.183089242016649,1.566552416195918,3.969380467407973,3.479511729552542,3.969380467407973h6.444590283172147c1.914241279215275,0,3.479501868278021-1.786291225391324,3.479501868278021-3.969380467407973v-22.638787303356366c0-2.18309910329117-1.565260589062746-3.969390328684312-3.479501868278021-3.969390328684312"/><path class="h" d="M155.397603529874687,124.404885718216974h-6.444590283172147c-1.912959313356623,0-3.479511729552542,1.786291225393143-3.479511729552542,3.969390328684312v22.638787303356366c0,2.183089242016649,1.566552416195918,3.969380467407973,3.479511729552542,3.969380467407973h6.444590283172147c1.914241279215275,0,3.479501868278021-1.786291225391324,3.479501868278021-3.969380467407973v-22.638787303356366c0-2.18309910329117-1.565260589062746-3.969390328684312-3.479501868278021-3.969390328684312"/><path class="h" d="M186.328925038251327,124.404885718216974h-6.444600144448486c-1.912949452082103,0-3.479511729552542,1.786291225393143-3.479511729552542,3.969390328684312v22.638787303356366c0,2.183089242016649,1.566562277470439,3.969380467407973,3.479511729552542,3.969380467407973h6.444600144448486c1.914231417938936,0,3.479492006999862-1.786291225391324,3.479492006999862-3.969380467407973v-22.638787303356366c0-2.18309910329117-1.565260589060927-3.969390328684312-3.479492006999862-3.969390328684312"/></g></g></g></g></svg>