<?xml version="1.0" encoding="UTF-8"?><svg id="b" xmlns="http://www.w3.org/2000/svg" xmlns:xlink="http://www.w3.org/1999/xlink" viewBox="0 0 85.021276595743984 86.406977096503397"><defs><style>.g{clip-path:url(#f);}.h{fill:#fff;}.i{fill:none;}.j{clip-path:url(#e);}</style><clipPath id="e"><rect class="i" width="85.021276595743984" height="86.406977096503397"/></clipPath><clipPath id="f"><rect class="i" width="85.021276595743984" height="86.406977096503397"/></clipPath></defs><g id="c"><g id="d"><g class="j"><g class="g"><path class="h" d="M67.39292420584934-.000105396193248H17.628352389894644C7.932705269300641-.000105396193248,0,7.932603926808952,0,17.628251047401136v51.150268263014368c0,9.695647120594003,7.932705269300641,17.628352389894644,17.628352389894644,17.628352389894644h49.764571815954696c9.695643066894263,0,17.628352389894644-7.932705269300641,17.628352389894644-17.628352389894644V17.628251047401136C85.021276595743984,7.932603926808952,77.088567272743603-.000105396193248,67.39292420584934-.000105396193248M25.236948151017714,72.283680499982438c0,.545141539634642-.442064062908685.987205602541508-.987205602541508.987205602541508h-11.027149655968969c-.545141539632823,0-.987205602541508-.442064062906866-.987205602541508-.987205602541508v-38.759206742333845c0-.545672574296987.442064062908685-.98773663720749.987205602541508-.98773663720749h11.027149655968969c.545141539632823,0,.987205602541508.442064062910504.987205602541508.98773663720749v38.759206742333845ZM18.736167720491721,27.311141174945078c-4.112997249218097,0-7.447603076363521-3.334074792479441-7.447603076363521-7.447072041697538,0-4.112997249216278,3.334605827145424-7.447603076361702,7.447603076363521-7.447603076361702s7.447603076363521,3.334605827145424,7.447603076363521,7.447603076361702c0,4.112997249218097-3.334605827145424,7.447072041697538-7.447603076363521,7.447072041697538M72.637118525704864,51.052403844143555v21.231276655838883c0,.545141539634642-.442064062910504.987205602541508-.987740690907231.987205602541508h-11.026614567603247c-.545672574296987,0-.98773663720749-.441533028242702-.98773663720749-.987205602541508v-21.233400794499175c0-.006376469673341.00159310399431-.131238528743779,0-.328357785492699v-1.459554856133764c0-3.81757982772433-3.094979475030414-6.91202826809058-6.912559302756563-6.91202826809058-3.81757982772433,0-6.912559302754744,3.09444844036625-6.912559302754744,6.91202826809058v23.021313436125638c0,.545141539634642-.442064062910504.987205602541508-.987201548843586.987205602541508h-11.02714965596715c-.545672574298806,0-.98773663720749-.442064062906866-.98773663720749-.987205602541508v-38.759206742333845c0-.545672574296987.442064062908685-.98773663720749.98773663720749-.98773663720749h11.02714965596715c.545137485933083,0,.987201548843586.442064062910504.987201548843586.98773663720749v3.55457578927053c2.769807897522696-3.551920615947893,7.02466842247668-5.846184944493871,11.764100105703619-5.846184944493871,8.263191247155191,0,15.063110395525655,6.967284249105433,15.063110395525655,15.433440188018722v4.386099053699581Z"/></g></g></g></g></svg>