<svg width="165" height="45" viewBox="0 0 165 45" fill="none" xmlns="http://www.w3.org/2000/svg">
<path d="M100.035 5.17348L105.081 14.3331L107.922 19.5066C109.11 18.1496 110.255 16.835 111.357 15.6901L107.88 9.41403L104.445 3.13801C103.385 1.18736 101.265 0 98.9325 0C96.6002 0 94.4799 1.18736 93.4198 3.13801L84.2178 19.8882H89.7305L97.8299 5.21588C98.1692 4.62221 98.7205 4.5798 98.9749 4.5798C99.1445 4.53739 99.7382 4.62221 100.035 5.17348Z" fill="#F8991D"/>
<path d="M115.895 23.959L114.877 22.1356C113.774 23.6622 112.757 25.1888 111.824 26.673L113.096 28.9629L118.1 38.0376C118.397 38.5465 118.142 39.013 118.057 39.1826C117.973 39.3522 117.633 39.7339 116.955 39.7339H111.527H104.276C103.64 39.7339 103.3 39.3522 103.173 39.1826C103.046 39.013 102.834 38.5465 103.131 38.0376C103.046 38.1225 103.046 38.2073 103.046 38.2073C103.046 38.2073 104.191 35.4509 106.481 31.2952C110.297 24.3831 117.252 13.5272 127.387 5.17334C127.387 5.17334 116.616 10.9829 104.021 28.1571C102.495 30.2774 100.926 32.5249 99.3565 34.9844C99.3141 35.0268 99.3141 35.0693 99.2717 35.1117L98.8053 35.9598C98.1692 37.1471 97.9996 38.4617 98.254 39.7339C98.3812 40.3699 98.6357 40.9636 99.0173 41.5573C100.162 43.2535 102.113 44.2713 104.318 44.2713H115.174H116.997C119.16 44.2713 121.153 43.2535 122.298 41.5573C123.443 39.8611 123.528 37.7408 122.552 35.9598L115.895 23.959Z" fill="#F8991D"/>
<path d="M8.86276 33.4154H3.85891C3.30763 34.6876 2.62914 36.3838 2.20509 37.5288H0L5.59753 23.4077H7.08173L12.6793 37.5288H10.5166L8.86276 33.4154ZM4.62221 31.5072H8.09946L6.40324 26.5881L4.62221 31.5072Z" fill="#1E1002"/>
<path d="M27.9448 28.5814C27.3935 26.3339 25.2308 25.5282 23.4498 25.5282C20.7358 25.5282 18.6155 27.6485 18.6155 30.5745C18.6155 33.5429 20.7358 35.7055 23.4498 35.7055C25.146 35.7055 27.0118 34.8998 27.8176 32.8644H22.6865V30.8713H30.1923C30.1075 32.0587 29.9802 32.822 29.8106 33.2884C28.8353 35.96 25.9941 37.6562 23.4498 37.6562C19.5485 37.6562 16.5801 34.6878 16.5801 30.6169C16.5801 26.5035 19.5909 23.5352 23.4498 23.5352C26.1213 23.5352 29.3442 24.8921 30.065 28.6238H27.9448V28.5814Z" fill="#1E1002"/>
<path d="M37.2747 35.4931H43.7628V37.4862H35.2393V23.5771H43.7204V25.5702H37.2747V29.5139H43.5932V31.5494H37.2747V35.4931Z" fill="#1E1002"/>
<path d="M48.5967 37.529V23.5352H50.1657L56.9506 33.3732V23.5776H58.9436V37.529H57.3322L50.5897 27.7757V37.529H48.5967Z" fill="#1E1002"/>
<path d="M65.3895 25.5705C66.6193 24.2984 68.3155 23.4927 70.2238 23.4927C73.4042 23.4927 75.9061 25.4857 76.7118 28.6237H74.7188C73.9979 26.5459 72.2592 25.4857 70.2238 25.4857C68.9092 25.4857 67.6794 26.0794 66.7889 26.9699C65.8984 27.8604 65.3471 29.1326 65.3471 30.5744C65.3471 31.9738 65.8984 33.2035 66.7889 34.1365C67.6794 35.0694 68.8668 35.6207 70.2238 35.6207C72.3441 35.6207 74.1251 34.3909 74.846 32.313H76.7966C75.9909 35.4934 73.4466 37.6137 70.2238 37.6137C68.3155 37.6137 66.6193 36.808 65.3895 35.5359C64.2022 34.2637 63.3965 32.5251 63.3965 30.5744C63.3965 28.6237 64.2022 26.8427 65.3895 25.5705Z" fill="#1E1002"/>
<path d="M82.6062 23.5771L86.4227 29.6835L90.2392 23.5771H92.6139L87.4404 31.8038V37.4862H85.4049V31.8462L80.2314 23.6196H82.6062V23.5771Z" fill="#1E1002"/>
<path d="M137.267 31.5076C137.267 35.6633 133.875 37.5291 129.592 37.5291V35.5361C132.772 35.5361 135.274 34.2639 135.274 31.5076V25.6132H131.5V23.6201H137.267V31.5076Z" fill="#1E1002"/>
<path d="M144.349 35.5361H150.837V37.5291H142.313V23.6201H150.795V25.6132H144.349V29.5569H150.667V31.5924H144.349V35.5361Z" fill="#1E1002"/>
<path d="M158.809 37.614V25.486H154.568V23.6201H165V25.486H160.802V37.614H158.809Z" fill="#1E1002"/>
<path d="M125.394 2.03528L134.723 0.169434L129.04 7.80243C129.083 7.76003 131.203 2.28971 125.394 2.03528Z" fill="#F8991D"/>
</svg>
