<?xml version="1.0" encoding="UTF-8"?><svg id="b" xmlns="http://www.w3.org/2000/svg" xmlns:xlink="http://www.w3.org/1999/xlink" viewBox="0 0 335.901708207624324 219.235544110699266"><defs><style>.g{clip-path:url(#f);}.h{fill:#fff;}.i{fill:none;}.j{clip-path:url(#e);}</style><clipPath id="e"><rect class="i" y=".000000000000909" width="335.901708207624324" height="219.235544110698356"/></clipPath><clipPath id="f"><rect class="i" y=".000000000000909" width="335.901708207624324" height="219.235544110698356"/></clipPath></defs><g id="c"><g id="d"><g class="j"><g class="g"><path class="h" d="M314.987990548544985.725655594538694C313.45152423906984.255540343697248,311.82005510815361.000000000000909,310.11980203496023.000000000000909H25.779606709478685C24.081003251178117.000000000000909,22.447884505369075.255540343697248,20.911418195892111.725655594538694,8.940787758761871,3.543022875629504.000499883301018,14.306435139777932.000499883301018,27.123930374963493v164.987680236502456c0,14.956738013028371,12.167184551257378,27.123933499233317,27.123917877879649,27.123933499233317h281.652222836970395c14.95673332662227,0,27.123917877879649-12.167195486204946,27.123917877879649-27.123933499233317V27.123930374963493c0-12.819132352998167-8.940287875459035-23.580907499333989-20.912567927485725-26.398274780424799M308.776640598151062,13.51855657129272c.855025392951575,0,1.690430366319561.090091468002356,2.502890696154282.240781289222468.804262243689664.370201075965269,1.171176586947695,1.08764608727688,1.326790258686742,1.574145013321868.217849142767591.678129189654101.380011285755245,1.959067652515841-.971348237197162,2.922217803568856l-119.791496982952594,85.365296334693085h-.001637117811697l-20.011665744545098,14.260570846869996c-2.319433524524356,1.652764159556682-5.438217939301467,1.652764159556682-7.759288581639339.001637117812606l-2.943512832209308-2.098297649049528-17.069777533064553-12.163910315633075L24.264460422808042,18.255700677405912c-1.349734902223645-.963150151053014-1.187572759235991-2.244088613914755-.969723616466581-2.922217803568856.155613671739047-.486498926044987.522528014997079-1.203943937356598,1.326790258686742-1.574145013321868.812460329832902-.150689821220112,1.646215688308075-.240781289222468,2.502890696152463-.240781289222468h281.652222836970395ZM13.519043957510803,192.111610611465949V27.123930374963493c0-.153976553926441.018020793017058-.303029257333947.022944643536903-.45536869344869.835379979203935.951690326367498,1.796905509527278,1.824749009418156,2.878003125555551,2.594619281968335l117.640774072664499,83.83374137865394-92.998451862296861,88.148274768915144c-1.303845615149839,1.235064797143423-2.229329559439066,2.787905409012637-2.74858333881275,4.471787304083591h-11.189312836977479c-7.50209862304655,0-13.605373803669863-6.103253310728178-13.605373803669863-13.605373803669863M55.996127614222132,205.716984415135812l89.283419142642742-84.626540673386444,10.945232317964837,7.800241521109456.001649614894632.001637117812606,2.363648202537661,1.683881895070954c2.799371482238712,1.995109238549958,6.078693419274714,2.992657609283015,9.361277094851175,2.992657609283015,3.279309439953067,0,6.560255997719651-.997548370733057,9.359627479958363-2.992657609283015l2.363660699618777-1.683881895070954.001637117813516-.001637117812606,10.946869435776534-7.800241521109456,89.281782024829226,84.626540673386444H55.996127614222132ZM322.382014401820925,192.111610611465949c0,7.502120492941685-6.103275180623314,13.605373803669863-13.605373803669863,13.605373803669863h-11.189312836977479c-.519253779371866-1.683881895070954-1.444737723661092-3.235083826993105-2.748583338810931-4.471787304083591l-92.998439365215745-88.148274768915144,117.640761575581564-83.83374137865394c1.081097616028273-.769870272550179,2.042623146351616-1.642928955600837,2.87800312555737-2.594619281968335.004923850518026.152339436114744.022944643535084.30139213952225.022944643535084.45536869344869v164.987680236502456Z"/></g></g></g></g></svg>