<?xml version="1.0" encoding="UTF-8"?><svg id="b" xmlns="http://www.w3.org/2000/svg" viewBox="0 0 329.548676721926313 228.355461009979081"><defs><style>.d{fill:#fff;}</style></defs><g id="c"><path class="d" d="M30.208438932839272,46.03504744969996h125.708731520770016c1.734653961879303,0,3.141088694890641-1.406434733013157,3.141088694890641-3.141088694886093,0-1.734653961872027-1.406434733011338-3.141088694885184-3.141088694890641-3.141088694885184H30.208438932839272c-1.734653961870208,0-3.141088694890641,1.406434733013157-3.141088694890641,3.141088694885184,0,1.734653961872937,1.406434733020433,3.141088694886093,3.141088694890641,3.141088694886093Z"/><path class="d" d="M160.862698039869429,125.300758086767928c0-1.734653961872027-1.406434733009519-3.141088694885184-3.141088694879727-3.141088694885184H32.012877824208772c-1.734653961870208,0-3.141088694879727,1.406434733013157-3.141088694879727,3.141088694885184,0,1.734653961872937,1.406434733009519,3.141088694886093,3.141088694879727,3.141088694886093h125.70873152078093c1.734653961870208,0,3.141088694879727-1.406434733013157,3.141088694879727-3.141088694886093Z"/><path class="d" d="M155.917170453609288,87.336989571070262c1.734653961879303,0,3.141088694890641-1.406434733013157,3.141088694890641-3.141088694885184,0-1.734653961872937-1.406434733011338-3.141088694885184-3.141088694890641-3.141088694885184H30.208438932839272c-1.734653961870208,0-3.141088694890641,1.406434733012247-3.141088694890641,3.141088694885184,0,1.734653961872027,1.406434733020433,3.141088694885184,3.141088694890641,3.141088694885184h125.708731520770016Z"/><path class="d" d="M317.734618353139012,41.043028529913499c-9.854245539379917-9.854101751745475-21.550506470619439-14.402008613321414-26.254854273058299-10.316906201785059l-.020321984960901-.020130268125286-.176762925830189.17685878424254c-.027990658529234.026504853032748-.062883123280699.044190731456183-.090106914460193.07136659342541l.009202408280544.009154479075733-9.44972300847985,9.450058512946271-.017254515529203-.017590020004718-95.609187752641446,95.284467356102141V10.774869801633031c0-5.941304849518019-4.833564952119559-10.774869801633031-10.77448636795998-10.774869801633031H10.774486367949066C4.833564952108645,0,0,4.833564952115012,0,10.774869801633031v206.805721406713928c0,5.941304849518019,4.833564952108645,10.774869801632121,10.774486367949066,10.774869801632121h164.576636650550427c5.940921415840421,0,10.77448636795998-4.833564952114102,10.77448636795998-10.774869801632121v-19.724978726927475c12.24840542839047-3.145258536139409,14.878377029741387-4.005204418763242,15.765259128280377-4.75520069405502l.001533734708573.002444389700031.037193066831605-.03815165101696c.049846378209622-.043471793308527.093174383890073-.087135303457217.132284619099664-.130750884394729l110.796995761000289-110.421901764929316.009585841969965.009250337495359,14.945477923489307-14.945669640330379.009585841959051.009202408286001c.027223791181314-.027223791178585.04447830672143-.062020397510423.071318664220598-.089771409996501l.176379492140768-.17685878424345-.019555117609343-.020130268124376c4.084718977859666-4.704539519275386-.462804450040494-16.40089630894272-10.317049989411316-26.255045989896644ZM179.843431996689105,217.580591208346959c0,2.477364997272161-2.015327414588683,4.492692411863572-4.492308978189612,4.492692411863572H10.774486367949066c-2.476981563588197,0-4.492308978180517-2.015327414591411-4.492308978180517-4.492692411863572V10.774869801633031c0-2.477364997273071,2.015327414592321-4.492692411862663,4.492308978180517-4.492692411862663h164.576636650550427c2.47698156360093,0,4.492308978189612,2.015327414589592,4.492308978189612,4.492692411862663v131.166286855557701l-14.522167142349645,14.472800056227243c-.393402954219709.392875732910397-.676760442689556.881993319142566-.822465240540623,1.418560823098233l-11.814741937929284,43.57704585319425c-.63458273804099,2.340862607699819,1.48350490240955,4.500073510174843,3.836253954139465,3.910448370945232,9.725795257050777-2.437200319440308,17.343472149299487-4.348425490296904,23.323120366680087-5.863467812765521v18.124047260456791ZM193.72066369166896,189.26267202771669c-2.049836445658002.546009558291189-4.658335761010676,1.227179488279035-7.595054305209487,1.986426101067991v-.005703575969164l-6.282177389770368,1.615693663095954v.005511859128092c-3.932112373790005,1.006561335469996-8.134928924650012,2.075286856077582-12.25070603047061,3.116884443925301-.47239029200864.119583378507741-.971620941509173-.014714267415002-1.321312456369924-.354148931372947l-3.712404875957873-3.603174206778021c-.366179163040215-.355730595296336-.510733659861216-.882328823610806-.377298739720572-1.37528074662896l6.805180927349284-25.100047891608483c.154140338780053-.569159366634267.861575475759309-.765860843744122,1.287570292650344-.358127055787918l9.568970882519352,9.157211040933362v.023868746491644l6.282177389770368,5.996471370022846v-.008531399349522l7.931709074990067,7.590501030278574c.438264694619647.419428515150685.249615324759361,1.156292186952669-.33665476978058,1.312445552551253ZM300.317143503869374,86.046591455035923l-100.485313843080803,100.143003426534051c-.572849915788538.570693101348297-1.496158213798481.580039297264193-2.080511139938608.021088852321554l-11.62570913439049-11.12523232543117v-.04030846545993l-6.282177389770368-6.003852468334117v.032496004258974l-8.197812047928892-7.844669629963391c-.603908043760384-.578026270452028-.61349388573035-1.539965511577066-.021472286010976-2.130165801322619l8.219284333939868-8.191389533815709v.088189746072203l6.282177389770368-6.282225318979727v-.066813318491768l86.837375487890313-86.542275343013898c1.382278411259904-1.3777251363299,3.475442862600175-1.723150951514981,5.241154952429497-.891147798217389,4.162556014611255,1.961550841168901,8.729634560120758,5.184454697221554,12.96811044308015,9.391441089333966,4.774899599298806,4.738952691925988,8.291753299190532,9.891246889356808,10.149872905560187,14.417441818884072.709352305359062,1.72655392541219.317099652180332,3.70689301683251-1.004979671550245,5.024419065624897Z"/></g></svg>