<?xml version="1.0" encoding="UTF-8"?><svg xmlns="http://www.w3.org/2000/svg" viewBox="0 0 299.519418836538534 279.961445094953888"><defs><style>.k{fill:#9fd3ff;}.l{fill:#fff;}.m{fill:#004e95;}.n{fill:#003270;}</style></defs><g id="a"><path class="l" d="M285.60638427734375,112.339059949821603H123.91864013671875c-9.0538330078125-24.324462890625-32.47845458984375-41.65521240234375-59.95672607421875-41.65521240234375C28.63671875,70.683847547477853,0,99.320566297477853,0,134.645700574821603c0,35.3251953125,28.63671875,63.9619140625,63.9619140625,63.9619140625,24.74908447265625,0,46.19940185546875-14.06585693359375,56.834472656250909-34.63067626953125h164.809997558592841c6.60003662109375,0,12-5.39996337890625,12-12v-27.63787841796875c0-6.5999755859375-5.39996337890625-12-12-12Z"/></g><g id="b"><circle class="n" cx="64.361614179043272" cy="134.521021380532829" r="55.116848361469685"/><path class="n" d="M64.361611733794234,78.143252939978993c31.271003723144531,0,56.711799621582031,25.440799713134766,56.711799621582031,56.711799621582031,0,31.271003723142712-25.4407958984375,56.711807250974744-56.711799621582031,56.711807250974744-31.270999908447266,0-56.711799621582031-25.440803527832031-56.711799621582031-56.711807250974744,0-31.270999908447266,25.440799713134766-56.711799621582031,56.711799621582031-56.711799621582031M64.361611733794234,74.143252939978993c-33.530200958251953,0-60.711800098419189,27.181598663330078-60.711800098419189,60.711799621582031,0,33.530197143552869,27.181599140167236,60.711807250974744,60.711800098419189,60.711807250974744,33.530197143554688,0,60.711799621582031-27.181610107421875,60.711799621582031-60.711807250974744,0-33.530200958251953-27.181602478027344-60.711799621582031-60.711799621582031-60.711799621582031h0Z"/></g><g id="c"><path class="k" d="M14.523749859335112,134.855047346060928c0-27.303922958662042,22.223687386008351-49.438125837347798,49.637995078525819-49.438125837347798,27.414307692518378,0,49.637995078524909,22.134202878685755,49.637995078524909,49.438125837347798"/><path class="m" d="M14.349695077037723,134.521021380533057c0,27.303922958659314,22.26265087621141,49.438125837345069,49.725022469675423,49.438125837345069,27.462371593464923,0,49.725022469672695-22.134202878685755,49.725022469672695-49.438125837345069"/><path class="l" d="M14.523749859335112,134.688026230154719c0,27.211667937026505,22.134186093445351,49.271120987723407,49.438136944510916,49.271120987723407v-98.542241975450452c-27.303950851065565,0-49.438136944510916,22.05945305070054-49.438136944510916,49.271120987727045Z"/></g><g id="d"><path class="l" d="M63.045706080209129,96.910787715313745c-6.163747096196857-.507152212042456-12.005554823686907,3.828621494352774-12.710634423005104,4.567176414763708-.301963545320177.316299978608185-.287128968414436,1.55102813351732-.287128968414436,1.55102813351732l-1.89250262033147,31.173682356763493s-.118279842905395,1.332615901573263.039434992248971,1.413550592965294l.02998466905683.025712551115248s.686731863093883.801298844141456,3.577575673409228,2.272651086923361c.280946044199482.142987372933931,1.778068254680875.650407853970137,2.556614028980221.910917681639148,1.155025537769689-1.515307085378481,3.047377355070239-2.325768347413032,4.721592590014552-1.876087607967747.809033120121967.217277247746097,1.24171214596663.849504718463322,1.66815797991967,1.487943648156943,0,0,.291376587082596-.012299101495955.667831216712329-.178832237531424.428330871824073-.189501088994803.71571117862095-.592131574395353.71571117862095-.592131574395353.473119371623397-.453188872422288,10.16555682579019-37.507678355293137,10.16555682579019-37.507678355293137,0,0-2.496443620158971-2.692058702384202-9.252193143001932-3.247932690656853Z"/><path class="l" d="M67.790294733491464,152.440276609531793c.001233638202393-.000569765492401.001931923978191-.001709296477202.00314228598927-.002279061965965l2.316725994121953,4.837969953325228c-.001350019165329.000615346729319-.002816419294504.000387440533814-.004166438461652.001025577883411l.242817240392469.506863381502626c.001326742974015-.000615346729319.002071581135169-.001846040191595.003375047915142-.002461386920913l2.209608956134616,4.614257230627118c-.001350019166239.000615346729319-.002816419295414.000387440530176-.004166438460743.001025577883411l.24281724039065.506863381502626c.001326742974925-.000615346732957.002071581135169-.001846040195232.003375047916961-.002461386924551l1.687686891207704,3.524341426058527c.179715482464417.375315924753522.014687277481244.822217185901536-.3686250609735.998206351010595l-11.055679371819679,5.075584954021906c-.383312338456562.17596637448878-.839735197624577.014380881013494-1.019473956282127-.360935043743666l-1.903503748274488-3.975048720687482c.138283859775584-4.09880178550884.380635576316308-10.684402036516985.603132700636706-16.628810993672232l-.00214140971184-.000068371857196.173547291445175-4.620843719712866.002327619251446.000091162477474c.033680650580209-.892252760153497.066034558186402-1.747470763340971.096177227502267-2.543159667944565l3.695561086753514,2.345998017164675.518570293202174.380261489222903c.001233638204212-.000569765488763.00193192398001-.001709296473564.003165562183312-.002301852586243l2.3167725465064,4.83806111580634c-.001256914396436.000569765492401-.002606933561765.000364649913536-.0038638479582.000957206026214"/><path class="l" d="M82.489932386532018,157.320855398485946l-24.480618822861288-17.605567081127447c-.745579457774511-.53619351917223-1.787403701172479-.021203869147939-1.81416599503882.896769987545667l-.000000062861545.00000215624641-1.165831965776306-.838435834865777-.114109093801744,3.914312139615504c-.01154295779088.395960902882507.18227168491012.769793081493845.512518320235358.98855193581403l23.902287484613225,15.833127324971429c.658322477343063.436079752260412,1.413755399798902.721955605542462,2.202010596980472.768942610324302.797796290751648.047555738630763,1.699675561721051-.108076302672998,2.116007482593886-.92082742240018.79868868716494-1.559176926537475-1.158097944083238-3.036875816123938-1.158097944083238-3.036875816123938Z"/></g><g id="e"><path class="m" d="M19.488120519309632,119.247051136796472s.437476384454385.259650972741838.681214807876131.485966131214809c.527944021213443.490204757825268,1.659804382141374,2.308200886457598,2.087427570530963,2.75086163717242.464612632395074.480950945207042,1.03578925355032.926654042199516,2.055386159466252,1.007130887618587,1.019596905916842.080476845418161,1.711687777815314-1.123895453335535,1.78248977588828-1.556649984112482.038206995044675-.233528017040044-.067410642961477-1.284786791880833-1.480501071183426-2.078229028231362-1.531339330533228-.859838322277028-5.1260172425782-.609079643661971-5.1260172425782-.609079643661971Z"/><path class="m" d="M47.519334864103257,135.467851087225426c-.07366497977273-.315213535754992.032442167620502-.420988725825737.032442167620502-.420988725825737-1.038844131760925-.723372019292583-2.898769555523359-2.034364361941698-3.43738481822129-2.424968648564573-3.805313174172625-2.759590327177648-13.170288637184058-9.605690963364395-13.43842016635881-9.796792741769423-.330316696207774-.2353983325429-.646737596984167-.575341276793552-1.328817558447554-.84604244097045-.682079961464297-.270720930599964-1.537392854861537-.449508227421575-2.059760117782389-.330435294745257-.522387029343918.119072932676318-.768202266854132.246783792240421-.982114497501243.42414790660132-.21391223064802.177364114359989-.428654651065699.77146372666266-.428654651065699.77146372666266-.035540028709875.11598937067447-.096499677511019.314859353353313-.069281312919884.758319055310494.027238131014201.443459701956272.45112907411567,1.189800304875462.558302620092945,1.313300916322987.10719331240125.123500611448435.874071228908178,1.040247547800391,1.23506541374627,1.364831981312818.311953689159054.2804855436043,15.050252747942068,9.349087398925803,19.144669626186442,11.877351276716581-.074677546423118-.273073134946571-.000288398601697-.598909069042747.05683509994833-.831535764991713.082643111938523-.336551411603068.263896039798965-.694603764006388.394018402980691-.879320987754909.032318101747478-.055168086835693-.055921335097992.08509217140454.104366713898344-.145342508959402.2054794686901-.295403156910652.41120640313693-.387958846330548.41120640313693-.387958846330548,0,0-.125033177487239-.157451515031426-.192473325313586-.446028903014849Z"/><path class="m" d="M79.221318827690993,156.387933912965309l-20.483094288878419-14.369576825141849-.103595823398791,3.466536448882835,19.633493891751641,12.68662403066628s2.028430337190002,1.031925883686199,2.483137133883247.37623409704247c.386473104197648-.557254999672296-1.529940913357677-2.159817751449737-1.529940913357677-2.159817751449737Z"/></g><g id="f"><path class="m" d="M59.856747122037632,98.677173476893586c-4.847458298589117-.48577961378669-5.932713991758646,2.501262943853362-5.932713991758646,2.501262943853362,0,0-.169240114471904.562018707633797-.273666127640354,1.239631457479845-.099207677473714.643871465636039-.10875485982433,1.406301936947784-.10875485982433,1.406301936947784,0,0,.268724521867625.413434505287114,1.850097668097987.86822036767353,1.718295158953879.494140810752469,2.242856494837724.351407469641345,2.242856494837724.351407469641345,0,0,.237197077043675-.004427678773027.320393951817096-.217055091918155.093040553470018-.237711004044286.341089396789357-1.136925123118999.341089396789357-1.136925123118999,0,0,.124034304871202-.361745308915488-.206717252644921-.444448023111363-.330731791091239-.08268294777281-1.726063363225876-.496097686637768-1.726063363225876-.496097686637768-.537468810159226-.144709983420398-2.108484350692379-.930227636898053-1.86043550737304-1.509028037732605s1.633042576179832-2.45991158675497,5.074851229782325-2.325539442608715c3.441788887181247.134372144145345,7.038625597055216,3.02837414831356,7.038625597055216,3.02837414831356,0,0-1.984450045821177,3.658843979099402-9.043771087847745,3.638168300550205-4.51225929588054-.013203970623181-6.927004605880938-2.967374966669013-7.712028098782866-2.529568461714007-.236149456620296.131683910604806-.225811617346153,1.485664125641961-.225811617346153,1.485664125641961l-1.4883523591825,29.85994937216492s-.093020787047863,1.276456303690793.031013517824249,1.353980215037154l.023581342742546.024628963166833s.540077978006593.767530208468997,2.813572428627594,2.176876174572499c.220949077266596.136961545569648,1.398355834868198.622998122856188,2.01064055641109.872529447906345.90836597296402-1.45144844727929,2.396599733608127-2.227754947597532,3.713280708280763-1.797024822109051.636261392747656.208120668683478.97654036619042.813704572799907,1.311917266707496,1.425238170265402,0,0,.229152142848761-.01178078815974.525213627845005-.17129582247253.336859382248804-.181515063207371.562868663825611-.567177744058426.562868663825611-.567177744058426.372083148189631-.434090417413245,7.994668182504029-35.927015741645846,7.994668182504029-35.927015741645846,0,0-1.963319739539656-2.578608957392134-7.276356367521657-3.111057096087279Z"/><path class="m" d="M60.29394086787579,138.850688956014892c.438142534147119-.329367907898813.425412957679328-1.94086508291457.425412957679328-1.94086508291457,0,0-.629817538821953,1.500390110843909-2.666154445245411,2.216488086439313-.201973311102847.071020758151462-.189816960904864.069518509996669-.236268055159599.066889575726236-.219802624726981-.732563406027111-.688326151159345-1.301836390934113-1.347101499803102-1.517329935428279-1.121210816763778-.366785746802634-2.404783032765408.412307819172383-3.056145972752347,1.774728296867579-.090273254238127-.022731386548912-.166097253199951-.040896729366978-.197565398754705-.050898539448099-.427053570794669-.13573602733959-1.534151161475165-.532428372272079-3.007777535457535-1.395035075789565-1.217196567275096-.712500486594763-1.771150574290004-1.229194786089465-2.012656731565585-1.509759395386027-.101164553359013-.117550918098459-.283806302683843-.111324494825567-.376234097038832.013223737045337-.199462975370807.268803587559887-.482360022592729.703902092551289-.54130349623847,1.077092160434404-.070823093919898.448638504805785.084442159428363,1.152837093703965.137851034609412,1.373904769508954.011168029043802.04625343002408.033425021440053.08450145869665.06821392607344.116938158982521.212568113877751.198059559331341,1.068019372237359.970155811533004,2.167724320684101,1.627626576253533,1.00031937316362.598033130497242,2.822012691285636,1.159261181205693,3.437084478484394,1.320673792136404.000177897807589.000039532846131.000454627731415,0,.000632525539004.000039532846131.191556406136442.82404241207405.684313567272511,1.47323104552197,1.399245323906143,1.707107363487012,1.237971077939619.404974476205098,2.67447610936506-.586212809492281,3.238293561498722-2.218326363787128.783600310438487-.263249222673039,1.461845585823539-.545474211508918,1.461845585823539-.545474211508918,0,0,1.238069910054946-.648160779446698,2.037384526847745-1.515096329619155.799334383215864-.866935550173366,1.343049383070138-.898225797920531,1.343049383070138-.898225797920531-.783106149861851-.32582971816646-2.27553039220038.296298682074848-2.27553039220038.296298682074848Z"/><path class="m" d="M46.918133580298672,140.116325150840566s-3.985718373753116,17.787532758144152-6.401696772104515,24.49800965709619c-1.272440045968324,3.534253261372214-1.238049748580124,3.247040202291828-1.272440045968324,3.534253261372214-.075773372446747.632826807246602,3.472659945646228,4.402300375568302,8.464820657535711,5.394531076068233,4.422662331036918.879038475733978,8.868646873331272-1.453290137720614,9.825473541292922-1.996867130288592.116333959270378-.066089779717004.18220619989097-.190362343408196.172170884898151-.323781762966973-.046701327075425-.620893709321535-.17750078473-2.453811754945491-.183862654060249-3.586224495658826-.007661612682568-1.363767057580844.909692714461926-25.781868768641289.909692714461926-25.781868768641289l-.165333736927096.053905870565359c-.130928944907282.042688436660683-.23927779157475.132522277741373-.303795669106876.254186301666778-.315259450351732.594497754380427-.993582965010319,2.046685974582942-2.913388257328734,2.094340715881117-1.234601155152632.030646127965156-2.217034327725742-1.054265942373604-2.325539145746006-1.99997785762389-1.651132383630284-.403079399733542-2.871354282749962-.986574535618274-3.26351034691379-1.224771919001796-.848151458341817-.515171067205301-1.922446982219299-1.534856864834182-2.200759428226775-1.542608667181412-.19070049806669-.005311557531968-.341831741806345.626873718712886-.341831741806345.626873718712886Z"/></g><g id="g"><path class="m" d="M45.84251128473079,121.681158767751185l2.358035442164692-1.105575576103547.166729778738954-3.345032246168557-.603627028230221-1.287406902079965c-.001106919693484.000533693423677-.001739445231578.001601080268301-.002846364925063.002115007269822l-3.777284386235806,1.771071508596833c-.033365722170856.015655007085115-.068470889573291.022929050780476-.102943531436722.022929050780476-.091241808970153,0-.178688464707193-.051708962794692-.220118887496938-.139788144070735-.056927298491246-.121444903447809-.004585810155731-.266135120444233.116859093290259-.323062418934569l3.777284386235806-1.771071508595924c.001106919692575-.000513927000611.002292905077411-.000316262769047.003399824770895-.000810423346593l-1.967273024158203-4.195700030141779c-.001087153270419.000533693422767-.001699912385448.001561547423989-.002806832078022.002075474422782l-3.777284386235806,1.771071508596833c-.033365722171766.015655007086025-.068470889573291.022929050781386-.102943531437631.022929050781386-.091241808969244,0-.178688464706283-.051708962795601-.220118887496028-.139788144071645-.056927298491246-.12144490344599-.004585810156641-.266135120442414.116859093290259-.323062418934569l3.777284386235806-1.771071508595924c.0010871532686-.000513926999702.00225337223128-.000316262767228.003340525500789-.000810423346593l-1.967352089850465-4.195877927948459c-.001106919692575.000533693422767-.001719678808513.001581313847055-.002826598501088.002095240846756l-3.777284386235806,1.771071508595924c-.033365722170856.015655007085115-.068470889573291.022929050781386-.102943531436722.022929050781386-.091241808970153,0-.178688464707193-.051708962795601-.220118887496938-.139788144071645-.056927298491246-.12144490344599-.004585810156641-.266135120443323.116859093290259-.32306241893366l3.777284386235806-1.771071508595924c.001087153269509-.000513927000611.002273138654346-.000316262770866.00338005834692-.000810423347502l-1.452120505664425-3.09702293569535c-.152636319076919-.325513455396504-.540236109390207-.465657395084236-.86574956478762-.313040842429473l-9.388616105023175,4.402081253592769c-.325513455396504.152636319078738-.465657395082417.540236109392026-.313040842428563.86574956478853l10.532894337529797,22.464203809196988,5.773791950139639,4.08811138927922.399182914241464-8.008227948741478c-.033504087132314-.072443940613994-.024708028857276-.150936406692381.010772700583402-.216145836456235l.264000346749526-5.296334000473507-2.124455620545632.996049825777845c-.033365722169947.015655007085115-.068470889573291.022929050781386-.102943531436722.022929050781386-.091241808970153,0-.178688464707193-.051708962795601-.220118887496938-.139788144071645-.056927298491246-.1214449034469-.004585810156641-.266135120443323.116859093290259-.32306241893366Z"/><path class="m" d="M58.401463988680007,139.118286791766877l-.02559751789795-.05461462698986c-.000454627731415.00181851092384-.001008087578157.003913751771506-.001462715308662.005732262694437.005949693349066.015931737008941.012057518083566.03174487547858.017038656700606.048348670871746.003834686079244.00021743065372.006779883118725.000355795616088.010021576506006.000533693423677Z"/><path class="m" d="M46.53969279343255,140.128271945820416c.064893166994807-.889232075415748.627228137396742-1.130026641461882.627228137396742-1.130026641461882,0,0-1.590604065811931-1.135383342118075-2.189842948117075-1.505628212959891l1.562614810720333,2.635654854421773Z"/></g><g id="h"><path class="m" d="M70.27663681877948,165.186443223146853l-1.433204038769873-3.056679666176933c-.001106919692575.000533693426405-.001739445231578.001601080271939-.002866131349037.002134773694706l-3.777126254850373,1.771071508595924c-.033207590785423.015813138470548-.068312758188767.023087182169547-.102785400051289.023087182169547-.091399940354677,0-.17900472747624-.051550831412897-.220118887497847-.139788144071645-.056927298490336-.121444903448719-.004743941541165-.265976989063347.116700961905735-.322904287553683l3.777126254851282-1.771071508595924c.001146452538705-.000553459845833.002391737193648-.000355795615178.003538189732353-.000889489037945l-1.876426543650268-4.001969317465409c-.001106919692575.000533693426405-.001739445231578.001601080271939-.002866131347218.002134773694706l-3.777126254851282,1.771071508595924c-.033207590786333.01581313846691-.068312758188767.023087182165909-.102785400052198.023087182165909-.091399940353767,0-.179004727475331-.051550831412897-.220118887496938-.139788144071645-.056927298490336-.121444903445081-.004743941541165-.265976989059709.116700961905735-.322904287550045l3.777126254850373-1.771071508595924c.001146452539615-.000553459845833.002391737194557-.000355795615178.003538189733263-.000889489037945l-1.967391622697505-4.195996526486852c-.001027854000313.000494160572998-.001620846693186.001482481729909-.002668467115654.001976642306545l-3.777442517621239,1.771071508595924c-.033207590785423.015813138470548-.068312758188767.023087182165909-.102785400052198.023087182165909-.091399940353767,0-.179004727475331-.051550831409259-.220118887496028-.139788144068007-.056927298492155-.121444903448719-.004743941541165-.265976989063347.116700961905735-.322904287550045l3.77744251761851-1.771071508599562c.001067386848263-.000513926999702.002213839386059-.000336029192113.003281226233412-.000830189768749l-1.967431155542727-4.196075592179113c-.001047620423378.000513926999702-.001640613116251.001502248152974-.002688233539629.00199640872961l-3.073224162299994,1.440893177350517s-.223261748767072.050246247486939-.301694915575354-.141448523609142c-.087505955008055-.213833164954849.121523969137343-.311914156311104.121523969137343-.311914156311104l.200253632294334-.092328962240572,2.612765336488337-1.225004304396862-3.138314993525455-2.034696293307206c-.02559751789704.690105129237054-.053072845988027,1.431840155579266-.081674860195562,2.205695619435573l-.001976642308364-.000079065692262-.147378450536962,4.0076818137386.00181851092475.000059299269196c-.188947238289074,5.15561683451233-.394755235471166,10.867342216162797-.512187555031232,14.422254342669476l1.616478313632797,3.447580449141242c.152636319078738.325513455398323.540236109391117.465657395085145.86574956478853.313040842429473l9.388616105023175-4.402081253592769c.325513455395594-.152636319078738.465657395083326-.540236109391117.313040842428563-.865749564789439Z"/></g><g id="i"><path class="m" d="M77.8897705078125,121.561777234977853l-2.62109375,1.00390625c-.37353515625-1.1904296875-1.05712890625-1.7861328125-2.05078125-1.7861328125-.46484375,0-.8330078125.13232421875-1.1044921875.396484375-.27099609375.26416015625-.40673828125.572265625-.40673828125.9248046875,0,.40869140625.16015625.734375.48095703125.9775390625.3203125.2431640625.99169921875.56201171875,2.01318359375.95654296875.93017578125.34521484375,1.6611328125.68701171875,2.193359375,1.025390625.53173828125.337890625.9619140625.7978515625,1.28955078125,1.37939453125.32763671875.5810546875.4912109375,1.255859375.4912109375,2.02392578125,0,1.345703125-.46337890625,2.4501953125-1.3896484375,3.3134765625-.9267578125.86328125-2.16845703125,1.294921875-3.7255859375,1.294921875-2.6142578125,0-4.28466796875-1.3212890625-5.01025390625-3.9638671875l2.76953125-.79248046875c.337890625,1.45166015625,1.109375,2.17724609375,2.314453125,2.17724609375.5498046875,0,.9951171875-.142578125,1.3369140625-.42822265625.341796875-.28515625.5126953125-.66064453125.5126953125-1.12548828125,0-.3525390625-.11962890625-.66748046875-.359375-.94580078125s-.7890625-.57275390625-1.64892578125-.8828125c-1.10595703125-.39453125-1.9306640625-.751953125-2.47314453125-1.07275390625-.54248046875-.3203125-.98974609375-.7783203125-1.34228515625-1.3740234375-.3525390625-.59521484375-.5283203125-1.2734375-.5283203125-2.03466796875,0-1.29638671875.41748046875-2.3583984375,1.25244140625-3.1865234375s1.939453125-1.2421875,3.3134765625-1.2421875c2.50830078125,0,4.07275390625,1.12060546875,4.69287109375,3.361328125Z"/><path class="m" d="M80.1622314453125,118.898203016227853l2.89599609375-.09521484375v3.37158203125h1.96630859375v2.3466796875h-1.96630859375v3.92138671875c0,.7255859375.01611328125,1.19580078125.0478515625,1.41064453125.03173828125.21533203125.13720703125.39501953125.31689453125.5390625.1796875.14453125.48095703125.216796875.90380859375.216796875.2255859375,0,.50732421875-.0068359375.845703125-.02099609375v2.26171875c-.66259765625.14794921875-1.2685546875.22216796875-1.818359375.22216796875-.90185546875,0-1.59228515625-.1728515625-2.0712890625-.51806640625-.4794921875-.34521484375-.78564453125-.7783203125-.91943359375-1.30029296875-.13427734375-.52099609375-.201171875-1.34912109375-.201171875-2.4833984375v-4.2490234375h-1.18359375v-2.3466796875h1.18359375v-3.2763671875Z"/><path class="m" d="M89.4005126953125,125.567636609977853l-2.822265625-.27490234375c.1337890625-1.07080078125.59033203125-1.8955078125,1.36865234375-2.47314453125.77880859375-.57763671875,1.759765625-.86669921875,2.94384765625-.86669921875,1.00048828125,0,1.8037109375.19189453125,2.40966796875.576171875.60595703125.3837890625.98828125.82958984375,1.14697265625,1.3369140625.158203125.50732421875.23779296875,1.29296875.23779296875,2.35693359375v4.25927734375c0,1.32470703125.0595703125,2.11376953125.1796875,2.36767578125h-2.76904296875c-.0986328125-.2890625-.1484375-.8349609375-.1484375-1.63818359375-.65380859375,1.240234375-1.6279296875,1.8603515625-2.921875,1.8603515625-.830078125,0-1.50537109375-.24853515625-2.02587890625-.7451171875-.5205078125-.4970703125-.78076171875-1.22119140625-.78076171875-2.17236328125,0-1.1904296875.3935546875-2.11181640625,1.181640625-2.763671875.78759765625-.65185546875,2.22216796875-1.041015625,4.30419921875-1.16796875v-.40185546875c0-.71142578125-.072265625-1.20458984375-.2158203125-1.4794921875-.14404296875-.27490234375-.4228515625-.412109375-.83642578125-.412109375-.7578125,0-1.1748046875.5458984375-1.251953125,1.63818359375ZM91.7047119140625,127.755624891227853c-.86669921875.09814453125-1.4853515625.28955078125-1.85498046875.57421875-.3701171875.2841796875-.55517578125.763671875-.55517578125,1.43798828125,0,.89892578125.3310546875,1.3486328125.99365234375,1.3486328125.359375,0,.68505859375-.20166015625.9775390625-.60595703125.29248046875-.40380859375.43896484375-1.146484375.43896484375-2.228515625v-.5263671875Z"/><path class="m" d="M96.8726806640625,122.174570203727853h2.62109375v2.5791015625c.47216796875-1.81103515625,1.314453125-2.71630859375,2.5263671875-2.71630859375.14794921875,0,.31689453125.017578125.50732421875.052734375v2.90673828125c-.21875-.0283203125-.38427734375-.04248046875-.49658203125-.04248046875-1.45166015625,0-2.177734375,1.099609375-2.177734375,3.2978515625v4.59765625h-2.98046875v-10.67529296875Z"/><path class="m" d="M104.4508056640625,118.898203016227853l2.89599609375-.09521484375v3.37158203125h1.96630859375v2.3466796875h-1.96630859375v3.92138671875c0,.7255859375.01611328125,1.19580078125.0478515625,1.41064453125.03173828125.21533203125.13720703125.39501953125.31689453125.5390625.1796875.14453125.48095703125.216796875.90380859375.216796875.2255859375,0,.50732421875-.0068359375.845703125-.02099609375v2.26171875c-.66259765625.14794921875-1.2685546875.22216796875-1.818359375.22216796875-.90185546875,0-1.59228515625-.1728515625-2.0712890625-.51806640625-.4794921875-.34521484375-.78564453125-.7783203125-.91943359375-1.30029296875-.13427734375-.52099609375-.201171875-1.34912109375-.201171875-2.4833984375v-4.2490234375h-1.18359375v-2.3466796875h1.18359375v-3.2763671875Z"/><path class="k" d="M88.6177978515625,136.577402234977853h3.19189453125l4.1220703125,14.4267578125h-3.24267578125l-.7197265625-2.98046875h-4.06396484375l-.70751953125,2.98046875h-2.91357421875l4.33349609375-14.4267578125ZM91.3726806640625,145.551035047477853l-1.4580078125-5.9111328125-1.3984375,5.9111328125h2.8564453125Z"/><path class="k" d="M96.8726806640625,140.329355359977853h2.62109375v2.5791015625c.47216796875-1.8115234375,1.314453125-2.71630859375,2.5263671875-2.71630859375.14794921875,0,.31689453125.017578125.50732421875.052734375v2.90673828125c-.21875-.0283203125-.38427734375-.04296875-.49658203125-.04296875-1.45166015625,0-2.177734375,1.099609375-2.177734375,3.2978515625v4.59765625h-2.98046875v-10.6748046875Z"/><path class="k" d="M104.4508056640625,137.052988172477853l2.89599609375-.09521484375v3.37158203125h1.96630859375v2.3466796875h-1.96630859375v3.9208984375c0,.7255859375.01611328125,1.1962890625.0478515625,1.4111328125s.13720703125.39453125.31689453125.5390625.48095703125.216796875.90380859375.216796875c.2255859375,0,.50732421875-.0068359375.845703125-.021484375v2.26171875c-.66259765625.1484375-1.2685546875.22265625-1.818359375.22265625-.90185546875,0-1.59228515625-.1728515625-2.0712890625-.5185546875-.4794921875-.3447265625-.78564453125-.7783203125-.91943359375-1.2998046875-.13427734375-.521484375-.201171875-1.349609375-.201171875-2.4833984375v-4.2490234375h-1.18359375v-2.3466796875h1.18359375v-3.2763671875Z"/></g><g id="j"><path class="m" d="M131.9913330078125,128.951425672477853h4.779296875c1.1201171875,0,1.966796875.0888671875,2.537109375.2666015625.5712890625.177734375,1.0498046875.5673828125,1.435546875,1.1689453125.38671875.6015625.580078125,1.35009765625.580078125,2.24560546875,0,1.5654296875-.6669921875,2.5703125-2,3.0146484375,1.5859375.560546875,2.37890625,1.70556640625,2.37890625,3.43505859375,0,.9091796875-.21484375,1.67626953125-.646484375,2.3017578125-.4296875.625-.9619140625,1.04296875-1.59375,1.2509765625-.6328125.208984375-1.5302734375.3125-2.69140625.3125h-4.779296875v-13.99609375ZM134.9444580078125,134.601328016227853h.9951171875c.9912109375,0,1.615234375-.177734375,1.87109375-.533203125.2568359375-.35546875.384765625-.76220703125.384765625-1.22021484375,0-.423828125-.1279296875-.80126953125-.384765625-1.13330078125-.255859375-.3310546875-.8046875-.4970703125-1.6455078125-.4970703125h-1.220703125v3.3837890625ZM134.9444580078125,140.548593641227853h1.5078125c1.4150390625,0,2.123046875-.6103515625,2.123046875-1.830078125,0-.6787109375-.1767578125-1.1572265625-.5283203125-1.4345703125-.3525390625-.27783203125-.8837890625-.41650390625-1.5947265625-.41650390625h-1.5078125v3.68115234375Z"/><path class="m" d="M143.3946533203125,132.591562391227853h2.8916015625v6.65283203125c0,.6708984375.0615234375,1.119140625.1845703125,1.3447265625.123046875.22607421875.3896484375.3388671875.7998046875.3388671875.3759765625,0,.6611328125-.09228515625.8564453125-.27734375.1943359375-.1845703125.3125-.439453125.353515625-.7646484375s.0615234375-.994140625.0615234375-2.00732421875v-5.287109375h2.8916015625v10.35595703125h-2.7177734375v-1.4150390625c-.41015625.7041015625-.818359375,1.15234375-1.224609375,1.34375-.4072265625.19140625-.88671875.287109375-1.44140625.287109375-.7451171875,0-1.3154296875-.154296875-1.7119140625-.4619140625s-.6533203125-.697265625-.7685546875-1.1689453125c-.1171875-.4716796875-.1748046875-1.2060546875-.1748046875-2.2041015625v-6.73681640625Z"/><path class="m" d="M156.4581298828125,131.740488172477853h-2.93359375v-2.86083984375h2.93359375v2.86083984375ZM153.5460205078125,132.591562391227853h2.890625v10.35595703125h-2.890625v-10.35595703125Z"/><path class="m" d="M158.5499267578125,128.951425672477853h2.89013671875v13.99609375h-2.89013671875v-13.99609375Z"/><path class="m" d="M168.6285400390625,128.951425672477853h2.8408203125v13.99609375h-2.6875v-1.7119140625c-.4365234375,1.2373046875-1.220703125,1.85546875-2.353515625,1.85546875-1.1123046875,0-1.94140625-.4853515625-2.4873046875-1.4560546875-.5458984375-.97021484375-.8193359375-2.2451171875-.8193359375-3.82421875,0-1.7978515625.3134765625-3.14111328125.9384765625-4.02978515625.6259765625-.888671875,1.4619140625-1.3330078125,2.5068359375-1.3330078125.96484375,0,1.6513671875.369140625,2.0615234375,1.107421875v-4.60400390625ZM168.6285400390625,136.925058484977853c0-1.01708984375-.1083984375-1.69775390625-.32421875-2.04248046875-.216796875-.3447265625-.5302734375-.51708984375-.9423828125-.51708984375-.4873046875,0-.818359375.23876953125-.9931640625.716796875-.1748046875.4775390625-.2626953125,1.46728515625-.2626953125,2.96923828125,0,1.119140625.095703125,1.904296875.2880859375,2.3544921875.1923828125.45068359375.5078125.67529296875.947265625.67529296875.37109375,0,.677734375-.1513671875.921875-.455078125.2431640625-.3037109375.365234375-.92626953125.365234375-1.86865234375v-1.83251953125Z"/><path class="m" d="M180.1021728515625,128.951425672477853h3.1474609375v17.5029296875h-3.1474609375v-17.5029296875Z"/><path class="m" d="M192.1705322265625,128.951425672477853h4.0302734375c1.2236328125,0,2.171875.1025390625,2.845703125.3076171875.6728515625.205078125,1.23828125.66845703125,1.6962890625,1.38916015625.4580078125.7216796875.6875,1.615234375.6875,2.681640625,0,1.025390625-.1845703125,1.873046875-.5537109375,2.54296875s-.8798828125,1.1533203125-1.533203125,1.451171875c-.65234375.296875-1.6552734375.44580078125-3.0087890625.44580078125h-1.087890625v5.177734375h-3.076171875v-13.99609375ZM195.2467041015625,131.217538953727853v4.15283203125h.9541015625c.8408203125,0,1.3828125-.1953125,1.625-.5859375.2431640625-.390625.3642578125-.8974609375.3642578125-1.52099609375,0-.52783203125-.09375-.95458984375-.2822265625-1.2802734375-.1875-.3251953125-.40625-.5341796875-.65625-.626953125-.2490234375-.09228515625-.599609375-.138671875-1.05078125-.138671875h-.9541015625Z"/><path class="m" d="M202.6412353515625,128.951425672477853h2.890625v13.99609375h-2.890625v-13.99609375Z"/><path class="m" d="M210.4234619140625,135.883066297477853l-2.7373046875-.2666015625c.12890625-1.0390625.572265625-1.8388671875,1.3271484375-2.3994140625.755859375-.560546875,1.7080078125-.8408203125,2.8564453125-.8408203125.9697265625,0,1.7490234375.1865234375,2.337890625.55908203125.5869140625.37255859375.9580078125.8046875,1.1123046875,1.296875.1533203125.4921875.23046875,1.25439453125.23046875,2.28662109375v4.13232421875c0,1.28466796875.0576171875,2.05029296875.1748046875,2.29638671875h-2.6865234375c-.095703125-.2802734375-.1435546875-.8095703125-.1435546875-1.5888671875-.634765625,1.203125-1.580078125,1.8046875-2.8359375,1.8046875-.8046875,0-1.4599609375-.2412109375-1.96484375-.7236328125-.5048828125-.4814453125-.7578125-1.18359375-.7578125-2.1064453125,0-1.1552734375.3828125-2.048828125,1.146484375-2.68115234375.7646484375-.63232421875,2.15625-1.01025390625,4.17578125-1.13330078125v-.3896484375c0-.6904296875-.0703125-1.1689453125-.208984375-1.435546875-.1396484375-.2666015625-.41015625-.39990234375-.8115234375-.39990234375-.7353515625,0-1.1396484375.52978515625-1.21484375,1.58935546875ZM212.6588134765625,138.005624891227853c-.8408203125.095703125-1.4404296875.28125-1.7998046875.55712890625-.3583984375.27587890625-.5380859375.7412109375-.5380859375,1.3955078125,0,.8720703125.3212890625,1.3076171875.9638671875,1.3076171875.3486328125,0,.6650390625-.1953125.9482421875-.58740234375.2841796875-.3916015625.42578125-1.1123046875.42578125-2.16162109375v-.51123046875Z"/><path class="m" d="M217.6724853515625,132.591562391227853h2.73828125v1.4150390625c.4775390625-1.080078125,1.3427734375-1.6201171875,2.59375-1.6201171875.6767578125,0,1.2353515625.15234375,1.6767578125.4560546875.4404296875.3046875.72265625.6923828125.845703125,1.1640625s.1845703125,1.189453125.1845703125,2.1533203125v6.78759765625h-2.8916015625v-6.78759765625c0-.697265625-.0888671875-1.1279296875-.2666015625-1.2919921875s-.4169921875-.24609375-.7177734375-.24609375c-.51953125,0-.861328125.1591796875-1.025390625.4765625-.1640625.318359375-.24609375.9111328125-.24609375,1.779296875v6.06982421875h-2.8916015625v-10.35595703125Z"/><path class="m" d="M234.2115478515625,128.951425672477853h3.1474609375v17.5029296875h-3.1474609375v-17.5029296875Z"/><path class="m" d="M246.2799072265625,128.951425672477853h3.076171875v11.37158203125h4.51171875v2.62451171875h-7.587890625v-13.99609375Z"/><path class="m" d="M262.9322509765625,138.251718641227853h-5.423828125v.572265625c0,.92626953125.1259765625,1.54638671875.3779296875,1.85986328125.251953125.3125.58203125.4697265625.9912109375.4697265625.87890625,0,1.3720703125-.587890625,1.4814453125-1.763671875l2.5732421875.1640625c-.45703125,2.40625-1.826171875,3.609375-4.1064453125,3.609375-1.40625,0-2.474609375-.4755859375-3.205078125-1.42578125-.7314453125-.94970703125-1.0966796875-2.22119140625-1.0966796875-3.81396484375,0-1.7978515625.3876953125-3.169921875,1.1630859375-4.1171875.7744140625-.9462890625,1.814453125-1.419921875,3.1181640625-1.419921875,1.1748046875,0,2.15625.4189453125,2.9443359375,1.255859375.7890625.837890625,1.1826171875,2.3740234375,1.1826171875,4.609375ZM260.2056884765625,136.580331922477853c.005859375-.123046875.009765625-.21875.009765625-.287109375,0-1.3330078125-.44921875-1.99951171875-1.3486328125-1.99951171875-.884765625,0-1.3310546875.76220703125-1.337890625,2.28662109375h2.6767578125Z"/><path class="m" d="M267.3931884765625,135.883066297477853l-2.7373046875-.2666015625c.12890625-1.0390625.572265625-1.8388671875,1.3271484375-2.3994140625.755859375-.560546875,1.7080078125-.8408203125,2.8564453125-.8408203125.9697265625,0,1.7490234375.1865234375,2.337890625.55908203125.5869140625.37255859375.9580078125.8046875,1.1123046875,1.296875.1533203125.4921875.23046875,1.25439453125.23046875,2.28662109375v4.13232421875c0,1.28466796875.0576171875,2.05029296875.1748046875,2.29638671875h-2.6865234375c-.095703125-.2802734375-.1435546875-.8095703125-.1435546875-1.5888671875-.634765625,1.203125-1.580078125,1.8046875-2.8359375,1.8046875-.8046875,0-1.4599609375-.2412109375-1.96484375-.7236328125-.5048828125-.4814453125-.7578125-1.18359375-.7578125-2.1064453125,0-1.1552734375.3828125-2.048828125,1.146484375-2.68115234375.7646484375-.63232421875,2.15625-1.01025390625,4.17578125-1.13330078125v-.3896484375c0-.6904296875-.0703125-1.1689453125-.208984375-1.435546875-.1396484375-.2666015625-.41015625-.39990234375-.8115234375-.39990234375-.7353515625,0-1.1396484375.52978515625-1.21484375,1.58935546875ZM269.6285400390625,138.005624891227853c-.8408203125.095703125-1.4404296875.28125-1.7998046875.55712890625-.3583984375.27587890625-.5380859375.7412109375-.5380859375,1.3955078125,0,.8720703125.3212890625,1.3076171875.9638671875,1.3076171875.3486328125,0,.6650390625-.1953125.9482421875-.58740234375.2841796875-.3916015625.42578125-1.1123046875.42578125-2.16162109375v-.51123046875Z"/><path class="m" d="M274.6431884765625,132.591562391227853h2.54296875v2.501953125c.4580078125-1.7568359375,1.2744140625-2.63525390625,2.451171875-2.63525390625.142578125,0,.306640625.01708984375.4921875.05126953125v2.81982421875c-.212890625-.02734375-.373046875-.041015625-.482421875-.041015625-1.408203125,0-2.1123046875,1.06640625-2.1123046875,3.19921875v4.4599609375h-2.8916015625v-10.35595703125Z"/><path class="m" d="M281.0826416015625,132.591562391227853h2.73828125v1.4150390625c.4775390625-1.080078125,1.3427734375-1.6201171875,2.59375-1.6201171875.6767578125,0,1.2353515625.15234375,1.6767578125.4560546875.4404296875.3046875.72265625.6923828125.845703125,1.1640625s.1845703125,1.189453125.1845703125,2.1533203125v6.78759765625h-2.8916015625v-6.78759765625c0-.697265625-.0888671875-1.1279296875-.2666015625-1.2919921875s-.4169921875-.24609375-.7177734375-.24609375c-.51953125,0-.861328125.1591796875-1.025390625.4765625-.1640625.318359375-.24609375.9111328125-.24609375,1.779296875v6.06982421875h-2.8916015625v-10.35595703125Z"/></g></svg>