<svg xmlns="http://www.w3.org/2000/svg" id="Layer_2" viewBox="0 0 79.01 79.01"><defs><style>.cls-1{fill:#fff;}.cls-2{fill:#1b1819;}</style></defs><g id="Layer_1-2"><path class="cls-2" d="m0,39.51C0,17.69,17.69,0,39.5,0s39.51,17.69,39.51,39.51-17.68,39.5-39.51,39.5S0,61.33,0,39.51h0Z"></path><path class="cls-1" d="m39.44,76.23c-20.25,0-36.73-16.48-36.73-36.73S19.19,2.78,39.44,2.78s36.72,16.48,36.72,36.73-16.47,36.73-36.72,36.73Zm0-71.48C20.27,4.75,4.68,20.34,4.68,39.51s15.59,34.75,34.75,34.75,34.75-15.59,34.75-34.75S58.6,4.75,39.44,4.75Z"></path><path class="cls-1" d="m23.97,41.39c0,4.03-1.82,5.45-4.7,5.45-3.3,0-5.14-1.42-5.14-5.45v-3.32c0-1.84-.42-3.64-1.42-5.25.24-.13.49-.18.75-.18.24,0,.44.04.62.09.2.04.33.04.53.04.22,0,.51-.13.64-.27.11-.11.26-.33.42-.33s.31.22.42.33c.13.13.42.27.64.27.2,0,.33,0,.53-.04.18-.05.4-.09.62-.09s.46.04.73.18c-.95,1.62-1.29,3.41-1.29,5.25v2.3c0,2.6.36,4.39,2.04,4.39,1.51,0,1.91-1.79,1.91-4.39v-2.3c0-1.84-.18-3.64-1.4-5.25.2-.13.42-.18.64-.18.2,0,.42.04.6.09.18.04.42.04.64.04.2,0,.38-.13.53-.27.09-.11.24-.33.42-.33.15,0,.31.22.42.33.13.13.31.27.51.27.22,0,.46,0,.64-.04.18-.05.35-.09.55-.09s.4.04.55.18c-1.06,1.62-1.44,3.41-1.44,5.25v3.32h0Z"></path><path class="cls-1" d="m37.8,41.39c0,.86.13,3.13,1.46,3.32,0,1.58-1.13,1.93-1.57,1.93-.47,0-.82-.2-1.18-.49-.36.29-.71.49-1.17.49s-1.57-.35-1.57-1.93c1.33-.2,1.44-2.46,1.44-3.32v-3.32c0-1.84-.42-3.64-1.42-5.25.27-.13.51-.18.78-.18.22,0,.44.04.62.09.2.04.44.04.64.04s.38-.13.53-.27c.11-.16.27-.33.42-.33s.31.22.42.33c.13.13.42.27.6.27.15,0,.33,0,.49-.04.18-.05.36-.09.51-.09.13,0,.31.04.44.13.31,1.42,1.64,4.63,3.15,6.14,0-1.82-.22-4.1-.91-6.27.18.02.36.06.51.09.18.02.33.04.49.04.33,0,.64-.13.77-.27.11-.11.27-.33.42-.33s.31.22.42.33c.13.13.38.27.64.27.2,0,.33,0,.53-.04.18-.05.44-.09.77-.09-1.09,2.1-1.11,7.8-1.11,9.88,0,1.09.17,2.99.42,4.12-.64,0-1.35-.18-1.86-.49-.42.31-1.02.49-1.62.49-.49-2.41-1.77-5.92-3.92-8.64-.11.22-.15.49-.15.73v2.66h0Z"></path><path class="cls-1" d="m55.19,39.48c0-3.61,2-6.71,4.68-6.71.36,0,.58-.11.75-.27.18-.16.31-.33.44-.33.16,0,.29.17.42.31.18.18.44.29.8.29,2.68,0,4.68,3.1,4.68,6.71,0,3.37-1.4,7.36-5.9,7.36s-5.87-3.99-5.87-7.36h0Zm8.07-.09c0-2.15,0-4.68-2.19-4.68s-2.17,2.53-2.17,4.68c0,2.52,0,5.36,2.17,5.36s2.19-2.84,2.19-5.36h0Z"></path></g></svg>